<?xml version="1.0" standalone="no"?>
<!DOCTYPE svg PUBLIC "-//W3C//DTD SVG 20010904//EN"
 "http://www.w3.org/TR/2001/REC-SVG-20010904/DTD/svg10.dtd">
<svg version="1.0" xmlns="http://www.w3.org/2000/svg"
 width="360.000000pt" height="360.000000pt" viewBox="0 0 360.000000 360.000000"
 preserveAspectRatio="xMidYMid meet">
<metadata>
Created by potrace 1.14, written by Peter Selinger 2001-2017
</metadata>
<g transform="translate(0.000000,360.000000) scale(0.100000,-0.100000)"
fill="#000000" stroke="none">
<path d="M443 3585 c-107 -23 -190 -70 -274 -154 -86 -86 -131 -167 -154 -279
-22 -100 -22 -2604 0 -2704 23 -112 68 -193 154 -279 86 -86 167 -131 279
-154 100 -22 2604 -22 2704 0 112 23 193 68 279 154 86 86 131 167 154 279 22
100 22 2604 0 2704 -23 112 -68 193 -154 279 -86 86 -167 131 -279 154 -97 21
-2614 21 -2709 0z m1812 -464 c192 -29 413 -85 520 -131 l45 -19 0 -301 0
-300 -38 0 c-29 0 -53 11 -107 51 -133 97 -361 195 -545 235 -115 25 -366 25
-463 1 -197 -49 -298 -159 -268 -291 29 -124 100 -158 511 -246 295 -63 447
-108 579 -171 192 -91 292 -181 361 -324 54 -113 65 -169 65 -325 0 -113 -4
-147 -24 -210 -71 -229 -217 -392 -459 -514 -177 -89 -388 -135 -662 -143
-362 -11 -686 43 -1012 168 l-78 30 0 315 0 314 38 0 c30 0 52 -12 117 -60
214 -160 537 -278 810 -296 109 -7 284 8 363 31 80 24 170 88 192 138 28 62
27 149 -4 201 -57 97 -140 131 -510 206 -302 61 -453 109 -604 190 -257 139
-382 351 -382 648 0 299 161 532 475 687 147 73 297 114 505 139 89 11 450 -3
575 -23z"/>
</g>
</svg>
